<svg xmlns="http://www.w3.org/2000/svg" xmlns:xlink="http://www.w3.org/1999/xlink" width="500" zoomAndPan="magnify" viewBox="0 0 375 374.999991" height="500" preserveAspectRatio="xMidYMid meet" version="1.0"><defs><clipPath id="e7ca766cc4"><path d="M 50.152344 7 L 355 7 L 355 368.519531 L 50.152344 368.519531 Z M 50.152344 7 " clip-rule="nonzero"/></clipPath><clipPath id="b5982b341d"><path d="M 18.75 87.902344 L 204.304688 87.902344 L 204.304688 267.835938 L 18.75 267.835938 Z M 18.75 87.902344 " clip-rule="nonzero"/></clipPath></defs><rect x="-37.5" width="450" fill="#ffffff" y="-37.499999" height="449.999989" fill-opacity="1"/><rect x="-37.5" width="450" fill="#ffffff" y="-37.499999" height="449.999989" fill-opacity="1"/><rect x="-37.5" width="450" fill="#ffffff" y="-37.499999" height="449.999989" fill-opacity="1"/><g clip-path="url(#e7ca766cc4)"><path fill="#000000" d="M 343.375 151.769531 L 283.386719 233.519531 C 282.574219 234.539062 281.058594 236.648438 280.214844 237.703125 C 277.5 241.074219 274.609375 244.449219 271.542969 247.542969 C 265.9375 253.273438 259.628906 258.367188 252.546875 262.128906 C 246.730469 265.222656 240.457031 267.367188 233.933594 268.386719 C 225.792969 269.683594 217.40625 269.085938 209.261719 267.894531 L 197.703125 266.101562 C 186.070312 264.449219 173.910156 264.238281 162.667969 267.859375 C 158.050781 269.402344 153.539062 271.652344 150.082031 275.132812 C 150.152344 275.625 150.082031 276.1875 149.835938 276.609375 C 149.765625 276.679688 149.730469 276.820312 149.660156 276.925781 L 142.824219 286.238281 C 142.789062 286.308594 142.71875 286.378906 142.683594 286.449219 C 142.292969 286.976562 141.90625 287.398438 141.449219 287.855469 C 140.636719 288.59375 139.6875 289.296875 138.628906 289.613281 C 137.992188 289.824219 137.324219 289.894531 136.691406 289.683594 L 136.65625 289.71875 C 128.300781 301.386719 103.664062 334.144531 96.296875 345.636719 C 94.675781 348.203125 93.125 350.945312 91.855469 353.6875 C 90.09375 357.691406 88.15625 361.945312 85.582031 365.460938 C 84.734375 366.621094 83.679688 367.921875 82.199219 368.273438 C 81.105469 368.519531 79.976562 368.167969 78.921875 367.746094 C 76.910156 366.867188 75.042969 365.53125 73.246094 364.300781 C 68.3125 360.785156 60.875 355.40625 56.082031 351.753906 C 54.953125 350.910156 53.824219 349.925781 52.839844 348.976562 C 51.886719 348.027344 50.863281 346.9375 50.546875 345.601562 C 50.265625 344.476562 50.617188 343.386719 51.179688 342.472656 C 51.851562 341.347656 52.660156 340.296875 53.507812 339.3125 C 55.058594 337.519531 56.75 335.796875 58.476562 334.179688 C 61.472656 331.613281 64.328125 328.941406 66.867188 325.921875 C 73.703125 318.1875 102.183594 278.648438 109.019531 269.578125 C 109.054688 269.542969 109.054688 269.542969 109.054688 269.507812 C 108.667969 268.984375 108.527344 268.316406 108.527344 267.648438 C 108.5625 266.523438 108.878906 265.433594 109.375 264.378906 C 109.65625 263.816406 109.972656 263.289062 110.324219 262.761719 C 110.359375 262.691406 110.429688 262.621094 110.464844 262.550781 L 117.304688 253.238281 C 117.375 253.167969 117.445312 253.027344 117.550781 252.992188 C 117.832031 252.640625 118.363281 252.429688 118.855469 252.324219 C 121.144531 248 121.921875 243.007812 121.992188 238.160156 C 122.027344 226.347656 118.183594 214.820312 113.039062 204.3125 L 107.894531 193.875 C 104.261719 186.527344 101.160156 178.761719 99.960938 170.570312 C 97.601562 155.808594 101.550781 141.539062 108.492188 128.570312 C 110.535156 124.742188 112.863281 120.945312 115.296875 117.394531 C 116.035156 116.199219 117.515625 114.265625 118.292969 113.105469 L 178.28125 31.355469 C 178.492188 31.144531 178.878906 30.546875 179.054688 30.300781 C 181.980469 26.503906 185.367188 23.0625 189.101562 20.074219 C 201.296875 10.410156 217.265625 5.839844 232.667969 7.667969 C 239.363281 8.476562 245.953125 10.375 251.980469 13.394531 C 254.203125 14.484375 256.386719 15.714844 258.433594 17.085938 C 259.101562 17.542969 259.914062 18.070312 260.617188 18.597656 L 330.617188 69.699219 L 331.144531 70.085938 C 331.570312 70.4375 332.273438 70.929688 332.730469 71.28125 C 334.457031 72.6875 336.152344 74.234375 337.773438 75.78125 C 342.671875 80.738281 346.726562 86.570312 349.578125 92.898438 C 356.03125 106.992188 356.488281 123.546875 350.917969 138.027344 C 349.226562 142.488281 346.972656 146.777344 344.222656 150.679688 C 343.976562 150.996094 343.585938 151.488281 343.375 151.769531 Z M 343.375 151.769531 " fill-opacity="1" fill-rule="nonzero"/></g><path fill="#ffffff" d="M 348.804688 126.320312 C 347.992188 131.207031 346.441406 136.023438 344.328125 140.519531 C 342.882812 143.578125 341.121094 146.496094 339.113281 149.238281 L 279.121094 230.953125 C 278.242188 232.148438 277.007812 233.765625 276.125 234.925781 C 273.765625 237.914062 271.15625 240.96875 268.546875 243.710938 C 262.484375 250.039062 255.472656 255.660156 247.46875 259.492188 C 243.097656 261.53125 238.410156 262.972656 233.617188 263.78125 C 226.144531 265.046875 218.460938 264.589844 210.953125 263.535156 C 204.679688 262.621094 194.566406 260.898438 188.363281 260.582031 C 181.382812 260.160156 174.261719 260.371094 167.390625 261.707031 C 162.703125 262.621094 158.085938 264.0625 153.890625 266.3125 C 151.070312 267.824219 148.460938 269.789062 146.242188 272.109375 L 135.457031 264.203125 L 122.945312 255.0625 C 124.390625 252.429688 125.445312 249.511719 126.046875 246.523438 C 126.890625 242.515625 126.960938 238.371094 126.714844 234.292969 C 126.152344 226.417969 124 218.722656 121.109375 211.449219 C 118.679688 205.15625 114.519531 197.074219 111.523438 190.992188 C 108 183.75 105.179688 176.089844 104.226562 168.042969 C 103.664062 163.332031 103.769531 158.550781 104.472656 153.878906 C 105.8125 145.582031 108.949219 137.640625 112.96875 130.292969 C 115.613281 125.480469 118.714844 120.769531 121.957031 116.339844 C 122.730469 115.636719 181.628906 34.765625 182.335938 34.097656 C 182.6875 33.675781 183.109375 33.007812 183.496094 32.621094 C 184.414062 31.496094 185.4375 30.335938 186.421875 29.28125 C 189.347656 26.222656 192.660156 23.519531 196.1875 21.199219 C 205.984375 14.835938 217.898438 11.8125 229.566406 12.761719 C 234.851562 13.183594 240.140625 14.378906 245.109375 16.277344 C 248.28125 17.507812 251.3125 19.054688 254.167969 20.847656 C 255.046875 21.375 256 22.007812 256.808594 22.605469 L 257.339844 22.992188 L 294.453125 50.089844 L 327.375 74.128906 C 343.871094 85.972656 352.1875 106.359375 348.804688 126.320312 Z M 348.804688 126.320312 " fill-opacity="1" fill-rule="nonzero"/><path fill="#ffffff" d="M 126.996094 296.785156 L 109.410156 276.433594 L 111.980469 271.828125 L 133.589844 288.101562 Z M 121.5 304.621094 L 103.59375 283.707031 L 96.507812 292.636719 L 114.589844 313.582031 Z M 110.007812 320.753906 L 91.609375 299.277344 L 84.734375 308.488281 L 103.171875 329.820312 Z M 98.164062 336.429688 L 79.90625 315.128906 L 72.753906 323.988281 L 91.785156 346.023438 Z M 83.609375 360.46875 L 87.839844 353.792969 L 67.289062 329.820312 L 58.902344 337.835938 C 54.566406 341.523438 54.53125 346.550781 59.464844 349.328125 L 77.300781 362.507812 C 80.117188 364.617188 82.164062 363.703125 83.609375 360.46875 Z M 83.609375 360.46875 " fill-opacity="1" fill-rule="nonzero"/><g clip-path="url(#b5982b341d)"><path fill="#191818" d="M 111.527344 87.980469 C 60.289062 87.980469 18.75 128.21875 18.75 177.859375 C 18.75 227.5 60.289062 267.738281 111.527344 267.738281 C 162.769531 267.738281 204.304688 227.5 204.304688 177.859375 C 204.304688 128.21875 162.769531 87.980469 111.527344 87.980469 Z M 111.605469 94.949219 C 118.265625 94.949219 123.664062 97.042969 123.664062 99.632812 C 123.664062 102.21875 118.265625 104.3125 111.605469 104.3125 C 104.945312 104.3125 99.546875 102.21875 99.546875 99.632812 C 99.546875 97.042969 104.945312 94.949219 111.605469 94.949219 Z M 38.902344 168.128906 C 38.609375 175.574219 35.769531 181.511719 32.554688 181.386719 C 29.34375 181.261719 26.980469 175.125 27.273438 167.679688 C 27.566406 160.230469 30.40625 154.296875 33.617188 154.417969 C 36.832031 154.542969 39.195312 160.679688 38.902344 168.128906 Z M 62.492188 241.394531 C 60.675781 243.367188 54.910156 241.082031 49.621094 236.292969 C 44.328125 231.5 41.511719 226.019531 43.328125 224.050781 C 45.148438 222.078125 50.910156 224.363281 56.203125 229.152344 C 61.492188 233.945312 64.308594 239.425781 62.492188 241.394531 Z M 59.316406 121.160156 C 54.300781 126.234375 48.671875 128.832031 46.746094 126.964844 C 44.820312 125.09375 47.328125 119.46875 52.34375 114.394531 C 57.359375 109.324219 62.988281 106.726562 64.910156 108.59375 C 66.835938 110.460938 64.332031 116.089844 59.316406 121.160156 Z M 80.546875 203.933594 C 73.84375 203.933594 68.410156 198.546875 68.410156 191.90625 C 68.410156 185.265625 73.84375 179.882812 80.546875 179.882812 C 87.25 179.882812 92.6875 185.265625 92.6875 191.90625 C 92.6875 198.546875 87.25 203.933594 80.546875 203.933594 Z M 101.03125 148.917969 C 100.089844 147.097656 99.546875 145.042969 99.546875 142.859375 C 99.546875 135.511719 105.558594 129.558594 112.972656 129.558594 C 120.390625 129.558594 126.402344 135.511719 126.402344 142.859375 C 126.402344 147.035156 124.453125 150.761719 121.414062 153.199219 C 121.414062 153.199219 121.414062 153.203125 121.414062 153.203125 L 121.277344 153.3125 C 118.992188 155.097656 116.109375 156.160156 112.972656 156.160156 C 107.773438 156.160156 103.261719 153.234375 101.035156 148.949219 L 101.050781 148.921875 C 101.042969 148.921875 101.039062 148.917969 101.03125 148.917969 Z M 114.570312 251.109375 C 107.421875 250.953125 101.683594 248.25 101.753906 245.074219 C 101.824219 241.894531 107.675781 239.445312 114.824219 239.601562 C 121.972656 239.757812 127.710938 242.457031 127.640625 245.636719 C 127.570312 248.816406 121.714844 251.265625 114.570312 251.109375 Z M 148.332031 203.867188 L 148.332031 203.875 C 147.941406 203.910156 147.546875 203.929688 147.148438 203.929688 C 141.144531 203.929688 136.105469 199.445312 134.71875 193.386719 L 135.050781 193.308594 L 134.734375 193.382812 C 134.484375 192.304688 134.339844 191.179688 134.339844 190.015625 C 134.339844 182.328125 140.074219 176.097656 147.148438 176.097656 C 154.222656 176.097656 159.957031 182.328125 159.957031 190.015625 C 159.957031 197.265625 154.847656 203.21875 148.332031 203.867188 Z M 153.003906 107.167969 C 154.21875 105.46875 159.890625 107.390625 165.671875 111.457031 C 171.453125 115.523438 175.152344 120.195312 173.933594 121.890625 C 172.71875 123.589844 167.046875 121.667969 161.265625 117.601562 C 155.484375 113.539062 151.785156 108.863281 153.003906 107.167969 Z M 174.765625 233.589844 C 174.558594 233.808594 174.347656 234.023438 174.140625 234.234375 C 174.140625 234.230469 174.140625 234.226562 174.140625 234.222656 C 174.140625 234.230469 174.140625 234.234375 174.140625 234.242188 L 174.066406 234.320312 C 169.421875 239.074219 164.726562 241.859375 163.359375 240.601562 C 163.050781 240.316406 162.9375 239.851562 162.996094 239.238281 L 163.011719 239.191406 C 163.257812 236.953125 165.769531 232.859375 169.5625 228.808594 C 174.425781 223.613281 179.53125 220.476562 180.96875 221.792969 C 182.402344 223.113281 179.628906 228.394531 174.765625 233.589844 Z M 193.144531 176.085938 C 190.464844 176.371094 187.632812 170.492188 186.820312 162.960938 C 186.011719 155.425781 187.523438 149.089844 190.203125 148.804688 C 192.882812 148.523438 195.714844 154.398438 196.527344 161.933594 C 197.335938 169.46875 195.824219 175.804688 193.144531 176.085938 Z M 193.144531 176.085938 " fill-opacity="1" fill-rule="nonzero"/></g></svg>